<svg width="15" height="15" viewBox="0 0 15 15" fill="none" xmlns="http://www.w3.org/2000/svg">
<g clip-path="url(#clip0_189_5732)">
<path d="M0 15.2144L1.2931 9.91085L9 1.92871L12.8276 5.893L5.12069 13.8751L0 15.2144ZM2.22414 10.4466L1.44828 13.7144L4.60345 12.9109L11.3793 5.893L9 3.42871L2.22414 10.4466Z" fill="#C8C8C8"/>
<path d="M4.24047 13.5537C3.93012 12.2144 2.89564 11.143 1.60254 10.8216L1.86116 9.80371C3.51633 10.2323 4.80944 11.5716 5.22323 13.2859L4.24047 13.5537Z" fill="#C8C8C8"/>
<path d="M10.1893 3.9043L10.9207 4.6618L4.19134 11.6368L3.45996 10.8814L10.1893 3.9043Z" fill="#C8C8C8"/>
<path d="M0.724609 14.4647L2.22461 14.0897C2.06944 13.5004 1.65564 13.0718 1.08668 12.9111L0.724609 14.4647Z" fill="#C8C8C8"/>
<path d="M13.1381 5.57143L9.31055 1.60714L10.8623 0L11.1209 0.0535716C12.983 0.321429 14.4312 1.82143 14.6899 3.75L14.7416 4.01786L13.1381 5.57143ZM10.7588 1.60714L13.1381 4.07143L13.6037 3.58929C13.345 2.35714 12.414 1.39286 11.2243 1.125L10.7588 1.60714Z" fill="#C8C8C8"/>
</g>
<defs>
<clipPath id="clip0_189_5732">
<rect width="15" height="15" fill="white"/>
</clipPath>
</defs>
</svg>
